<svg width="17" height="17" viewBox="0 0 17 17" fill="none" xmlns="http://www.w3.org/2000/svg">
<path d="M15.146 9.05636H2.5768V3.16453C2.5762 2.94265 2.61961 2.72285 2.70452 2.51786C2.78943 2.31287 2.91416 2.12676 3.07149 1.97029L3.08458 1.9572C3.33114 1.711 3.6477 1.54693 3.99101 1.48739C4.33432 1.42786 4.68764 1.47577 5.0027 1.62457C4.70515 2.11929 4.58148 2.69925 4.65133 3.27231C4.72118 3.84537 4.98055 4.37865 5.38822 4.7874L5.74667 5.14586L5.08688 5.80567L5.82749 6.54628L6.48727 5.88649L10.1431 2.23071L10.8029 1.57093L10.0623 0.830292L9.40245 1.49008L9.044 1.13163C8.61483 0.70366 8.04911 0.439847 7.44541 0.386157C6.84171 0.332468 6.23831 0.492307 5.74035 0.83782C5.21527 0.506213 4.59301 0.363056 3.9758 0.431866C3.35859 0.500676 2.78314 0.777361 2.34398 1.21647L2.33089 1.22956C2.07598 1.48307 1.87389 1.78462 1.73631 2.11676C1.59873 2.4489 1.52839 2.80503 1.52937 3.16453V9.05636H0.481934V10.1038H1.52937V11.1087C1.52935 11.1931 1.54296 11.277 1.5697 11.3571L2.54407 14.2801C2.59607 14.4366 2.69606 14.5727 2.82983 14.6691C2.9636 14.7656 3.12435 14.8174 3.28926 14.8172H3.7115L3.32965 16.1265H4.42072L4.8026 14.8172H11.6142L12.007 16.1265H13.1003L12.7075 14.8172H13.386C13.5509 14.8174 13.7117 14.7656 13.8455 14.6692C13.9793 14.5727 14.0793 14.4366 14.1313 14.2801L15.1056 11.3571C15.1324 11.277 15.146 11.1931 15.146 11.1087V10.1038H16.1935V9.05636H15.146ZM6.12892 1.87226C6.41749 1.58432 6.80849 1.42261 7.21614 1.42261C7.62379 1.42261 8.0148 1.58432 8.30336 1.87226L8.66175 2.23071L6.48737 4.40509L6.12892 4.0467C5.841 3.75813 5.6793 3.36713 5.6793 2.95948C5.6793 2.55184 5.841 2.16084 6.12892 1.87226ZM14.0986 11.0661L13.1974 13.7698H3.47799L2.5768 11.0661V10.1038H14.0986V11.0661Z" fill="#666666"/>
</svg>
