<svg width="19" height="15" viewBox="0 0 19 15" fill="none" xmlns="http://www.w3.org/2000/svg">
<path d="M16.1839 6.77591C15.776 6.6054 15.3354 6.51754 14.89 6.5179H3.24498C2.7996 6.51749 2.35899 6.60522 1.95109 6.77552C1.37458 7.01563 0.884008 7.4105 0.539331 7.91185C0.194654 8.41321 0.0108048 8.99933 0.0102539 9.59859V13.9116C0.0102539 14.075 0.078414 14.2317 0.19974 14.3472C0.321065 14.4628 0.485619 14.5277 0.657199 14.5277C0.82878 14.5277 0.993333 14.4628 1.11466 14.3472C1.23598 14.2317 1.30414 14.075 1.30414 13.9116V13.6035C1.30519 13.5221 1.33961 13.4443 1.40005 13.3868C1.46048 13.3292 1.54215 13.2964 1.62762 13.2954H16.5074C16.5928 13.2964 16.6745 13.3292 16.7349 13.3868C16.7954 13.4443 16.8298 13.5221 16.8308 13.6035V13.9116C16.8308 14.075 16.899 14.2317 17.0203 14.3472C17.1416 14.4628 17.3062 14.5277 17.4778 14.5277C17.6494 14.5277 17.8139 14.4628 17.9352 14.3472C18.0566 14.2317 18.1247 14.075 18.1247 13.9116V9.59859C18.1241 8.9994 17.9402 8.41335 17.5955 7.91207C17.2509 7.41079 16.7603 7.01599 16.1839 6.77591ZM13.9196 0.972656H4.2154C3.61487 0.972656 3.03893 1.19986 2.61429 1.60428C2.18965 2.0087 1.95109 2.55721 1.95109 3.12914V5.90176C1.95111 5.92563 1.95695 5.94917 1.96816 5.97052C1.97936 5.99187 1.99563 6.01045 2.01566 6.02479C2.0357 6.03913 2.05896 6.04884 2.08361 6.05315C2.10826 6.05746 2.13363 6.05626 2.15771 6.04964C2.51088 5.95126 2.87701 5.90146 3.24498 5.90176H3.41602C3.45594 5.902 3.49454 5.88818 3.5244 5.86294C3.55426 5.8377 3.57326 5.80284 3.57775 5.76506C3.61304 5.46399 3.76353 5.18586 4.00049 4.98377C4.23745 4.78168 4.54426 4.66979 4.86234 4.66949H7.12665C7.44494 4.66951 7.75205 4.78126 7.98927 4.98338C8.22648 5.1855 8.37714 5.4638 8.41245 5.76506C8.41694 5.80284 8.43595 5.8377 8.46581 5.86294C8.49566 5.88818 8.53427 5.902 8.57419 5.90176H9.56321C9.60313 5.902 9.64173 5.88818 9.67159 5.86294C9.70145 5.8377 9.72045 5.80284 9.72495 5.76506C9.76021 5.46419 9.91053 5.18621 10.1472 4.98415C10.3839 4.78209 10.6905 4.67008 11.0083 4.66949H13.2726C13.5909 4.66951 13.898 4.78126 14.1352 4.98338C14.3725 5.1855 14.5231 5.4638 14.5584 5.76506C14.5629 5.80284 14.5819 5.8377 14.6118 5.86294C14.6416 5.88818 14.6802 5.902 14.7202 5.90176H14.89C15.258 5.9016 15.6241 5.95152 15.9773 6.05002C16.0014 6.05665 16.0268 6.05785 16.0515 6.05352C16.0761 6.04919 16.0994 6.03945 16.1195 6.02506C16.1395 6.01068 16.1558 5.99205 16.167 5.97065C16.1781 5.94925 16.1839 5.92567 16.1839 5.90176V3.12914C16.1839 2.55721 15.9453 2.0087 15.5207 1.60428C15.096 1.19986 14.5201 0.972656 13.9196 0.972656Z" fill="#666666"/>
</svg>
