<svg width="18" height="18" viewBox="0 0 18 18" fill="none" xmlns="http://www.w3.org/2000/svg">
<path d="M7.49547 0C3.36472 0 0 3.36472 0 7.49547C0 11.6262 3.36472 14.9909 7.49547 14.9909C9.29177 14.9909 10.9414 14.3531 12.2343 13.2942L16.7096 17.7695C16.7787 17.8415 16.8614 17.8989 16.953 17.9385C17.0445 17.978 17.143 17.9989 17.2428 18C17.3425 18.001 17.4414 17.9821 17.5337 17.9444C17.626 17.9067 17.7099 17.851 17.7804 17.7804C17.851 17.7099 17.9067 17.626 17.9444 17.5337C17.9821 17.4414 18.001 17.3425 18 17.2428C17.9989 17.143 17.978 17.0445 17.9385 16.953C17.8989 16.8614 17.8415 16.7787 17.7695 16.7096L13.2942 12.2343C14.3531 10.9414 14.9909 9.29177 14.9909 7.49547C14.9909 3.36472 11.6262 0 7.49547 0ZM7.49547 1.49909C10.8161 1.49909 13.4919 4.17489 13.4919 7.49547C13.4919 10.8161 10.8161 13.4919 7.49547 13.4919C4.17489 13.4919 1.49909 10.8161 1.49909 7.49547C1.49909 4.17489 4.17489 1.49909 7.49547 1.49909Z" fill="black"/>
</svg>
