<svg width="22" height="22" viewBox="0 0 22 22" fill="none" xmlns="http://www.w3.org/2000/svg">
<path d="M9.16113 0C4.11243 0 0 4.11243 0 9.16113C0 14.2098 4.11243 18.3223 9.16113 18.3223C11.3566 18.3223 13.3729 17.5426 14.953 16.2485L20.4229 21.7183C20.5073 21.8063 20.6084 21.8764 20.7203 21.9248C20.8322 21.9732 20.9526 21.9987 21.0745 22C21.1964 22.0012 21.3173 21.9781 21.4301 21.932C21.5429 21.886 21.6455 21.8178 21.7316 21.7316C21.8178 21.6455 21.886 21.5429 21.932 21.4301C21.9781 21.3173 22.0012 21.1964 22 21.0745C21.9987 20.9526 21.9732 20.8322 21.9248 20.7203C21.8764 20.6084 21.8063 20.5073 21.7183 20.4229L16.2485 14.953C17.5426 13.3729 18.3223 11.3566 18.3223 9.16113C18.3223 4.11243 14.2098 0 9.16113 0ZM9.16113 1.83223C13.2196 1.83223 16.49 5.10264 16.49 9.16113C16.49 13.2196 13.2196 16.49 9.16113 16.49C5.10264 16.49 1.83223 13.2196 1.83223 9.16113C1.83223 5.10264 5.10264 1.83223 9.16113 1.83223Z" fill="#F5F5F6"/>
</svg>
