<svg width="24" height="25" viewBox="0 0 24 25" fill="none" xmlns="http://www.w3.org/2000/svg">
<path d="M19.1055 16.0473C18.4395 16.0506 17.7827 16.2035 17.1836 16.4945C16.5846 16.7856 16.0585 17.2075 15.6442 17.729L9.1398 13.6626C9.37686 12.8975 9.37686 12.0786 9.1398 11.3136L15.6442 7.24718C16.3044 8.06465 17.2326 8.62207 18.2644 8.8207C19.2962 9.01933 20.3651 8.84635 21.2816 8.3324C22.198 7.81844 22.903 6.99669 23.2717 6.01271C23.6403 5.02874 23.6488 3.94604 23.2955 2.95642C22.9423 1.96681 22.2503 1.13414 21.3419 0.605932C20.4336 0.0777217 19.3676 -0.111939 18.3328 0.0705456C17.298 0.253031 16.3612 0.795883 15.6883 1.60294C15.0154 2.41 14.6499 3.42917 14.6565 4.47991C14.6607 4.8778 14.7206 5.27315 14.8345 5.65444L8.33008 9.72081C7.75585 8.99793 6.97095 8.47158 6.08419 8.21474C5.19743 7.95789 4.25273 7.98328 3.38104 8.28736C2.50935 8.59145 1.75385 9.15918 1.21925 9.91186C0.684662 10.6645 0.397461 11.5649 0.397461 12.4881C0.397461 13.4113 0.684662 14.3116 1.21925 15.0643C1.75385 15.817 2.50935 16.3847 3.38104 16.6888C4.25273 16.9929 5.19743 17.0183 6.08419 16.7614C6.97095 16.5046 7.75585 15.9782 8.33008 15.2554L14.8345 19.3217C14.7206 19.703 14.6607 20.0984 14.6565 20.4963C14.6565 21.3762 14.9175 22.2364 15.4063 22.968C15.8952 23.6996 16.59 24.2699 17.403 24.6066C18.2159 24.9433 19.1105 25.0314 19.9735 24.8598C20.8365 24.6881 21.6292 24.2644 22.2514 23.6422C22.8736 23.02 23.2974 22.2272 23.469 21.3642C23.6407 20.5012 23.5526 19.6067 23.2159 18.7937C22.8791 17.9808 22.3089 17.2859 21.5773 16.7971C20.8456 16.3082 19.9855 16.0473 19.1055 16.0473ZM19.1055 1.81051C19.6335 1.81051 20.1496 1.96707 20.5886 2.26039C21.0275 2.5537 21.3697 2.97061 21.5717 3.45837C21.7738 3.94614 21.8266 4.48287 21.7236 5.00068C21.6206 5.51849 21.3664 5.99413 20.9931 6.36745C20.6198 6.74077 20.1441 6.99501 19.6263 7.09801C19.1085 7.20101 18.5718 7.14814 18.084 6.9461C17.5962 6.74406 17.1793 6.40192 16.886 5.96294C16.5927 5.52396 16.4361 5.00786 16.4361 4.47991C16.4361 3.77194 16.7174 3.09297 17.218 2.59236C17.7186 2.09175 18.3976 1.81051 19.1055 1.81051ZM4.86877 15.1575C4.34082 15.1575 3.82471 15.0009 3.38574 14.7076C2.94676 14.4143 2.60461 13.9974 2.40257 13.5096C2.20053 13.0218 2.14767 12.4851 2.25067 11.9673C2.35367 11.4495 2.6079 10.9739 2.98123 10.6005C3.35455 10.2272 3.83019 9.97298 4.348 9.86998C4.86581 9.76698 5.40254 9.81985 5.8903 10.0219C6.37807 10.2239 6.79497 10.5661 7.08829 11.005C7.38161 11.444 7.53816 11.9601 7.53816 12.4881C7.53816 13.1961 7.25693 13.875 6.75632 14.3756C6.25571 14.8762 5.57674 15.1575 4.86877 15.1575ZM19.1055 23.1657C18.5776 23.1657 18.0615 23.0091 17.6225 22.7158C17.1835 22.4225 16.8414 22.0056 16.6393 21.5178C16.4373 21.03 16.3844 20.4933 16.4874 19.9755C16.5904 19.4577 16.8447 18.982 17.218 18.6087C17.5913 18.2354 18.0669 17.9812 18.5848 17.8782C19.1026 17.7752 19.6393 17.828 20.1271 18.0301C20.6148 18.2321 21.0317 18.5742 21.3251 19.0132C21.6184 19.4522 21.7749 19.9683 21.7749 20.4963C21.7749 21.2042 21.4937 21.8832 20.9931 22.3838C20.4925 22.8844 19.8135 23.1657 19.1055 23.1657Z" fill="#999999"/>
</svg>
